{"title":"Exposed 2016 Movies HDRip XviD ESubs AAC New Source +Sample ☻rDX","uid":13280623,"size":741692939,"categoryP":"video","categoryS":"movies","magnet":"?xt=urn:btih:b0125e35cd58c0851b2f2bb2a3643a31a7e30391&amp;dn=Exposed+2016+Movies+HDRip+XviD+ESubs+AAC+New+Source+%2BSample+%E2%98%BBrDX&amp;tr=udp%3A%2F%2Ftracker.leechers-paradise.org%3A6969&amp;tr=udp%3A%2F%2Fzer0day.ch%3A1337&amp;tr=udp%3A%2F%2Fopen.demonii.com%3A1337&amp;tr=udp%3A%2F%2Ftracker.coppersurfer.tk%3A6969&amp;tr=udp%3A%2F%2Fexodus.desync.com%3A6969","seeders":0,"leechers":1,"uploader":"basicssom","files":3,"time":1453486529,"description":"----------------------------------------------------------------\r\nExposed 2016 English Movies HC HDRip XviD ESubs AAC New Source with Sample ~ ☻rDX☻\r\n\r\nSCREEN SHOTS &amp; POSTER:\r\n  \nhttp://doctorhosts.com/2016/1/Exposed/11.html  \nhttp://doctorhosts.com/2016/1/Exposed/1.html  \nhttp://doctorhosts.com/2016/1/Exposed/2.html  \nhttp://doctorhosts.com/2016/1/Exposed/3.html  \nhttp://doctorhosts.com/2016/1/Exposed/4.html  \nhttp://doctorhosts.com/2016/1/Exposed/5.html  \nhttp://doctorhosts.com/2016/1/Exposed/6.html  \nhttp://doctorhosts.com/2016/1/Exposed/7.html  \nhttp://doctorhosts.com/2016/1/Exposed/8.html  \nhttp://doctorhosts.com/2016/1/Exposed/9.html  \nhttp://doctorhosts.com/2016/1/Exposed/10.html\r\n\r\nFormat                                   : Matroska\r\nFormat version                           : Version 4 / Version 2\r\nFile size                                : 693 MiB\r\nDuration                                 : 1h 42mn\r\nOverall bit rate                         : 945 Kbps\r\nMovie name                               : Exposed 2016 English Movies HDRip XviD ESubs AAC New Source ☻rDX☻\r\n\r\nVideo\r\nID                                       : 1\r\nFormat                                   : MPEG-4 Visual\r\nFormat profile                           : Advanced   \r\nFormat settings, BVOP                    : Yes\r\nFormat settings, QPel                    : No\r\nFormat settings, GMC                     : No warppoints\r\nFormat settings, Matrix                  : Default (H.263)\r\nCodec ID                                 : V_MS/VFW/FOURCC / XVID\r\nCodec ID/Hint                            : XviD\r\nDuration                                 : 1h 42mn\r\nBit rate                                 : 798 Kbps\r\nWidth                                    : 640 pixels\r\nHeight                                   : 272 pixels\r\nDisplay aspect ratio                     : 2.35:1\r\nFrame rate mode                          : Constant\r\nFrame rate                               : 23.976 fps\r\nColor space                              : YUV\r\nChroma subsampling                       : 4:2:0\r\nBit depth                                : 8 bits\r\nScan type                                : Progressive\r\nCompression mode                         : Lossy\r\nBits/(Pixel*Frame)                       : 0.191\r\nStream size                              : 585 MiB (84%)\r\nTitle                                    : ☻rDX☻\r\nWriting library                          : XviD 67\r\nDefault                                  : Yes\r\nForced                                   : No\r\n\r\nAudio\r\nID                                       : 2\r\nFormat                                   : MPEG Audio\r\nFormat version                           : Version 1\r\nFormat profile                           : Layer 3\r\nCodec ID                                 : A_MPEG/L3\r\nCodec ID/Hint                            : MP3\r\nDuration                                 : 1h 42mn\r\nBit rate mode                            : Constant\r\nBit rate                                 : 128 Kbps\r\nChannel(s)                               : 2 channels\r\nSampling rate                            : 48.0 KHz\r\nCompression mode                         : Lossy\r\nStream size                              : 93.8 MiB (14%)\r\nTitle                                    : ☻rDX☻\r\nWriting library                          : LAME3.99r\r\nEncoding settings                        : -m s -V 4 -q 3 -lowpass 17 -b 128\r\nDefault                                  : Yes\r\nForced                                   : No\r\nHC Subs aswell removable subs\r\n\r\nIMDB                                      \nhttp://www.imdb.com/title/tt4019560/","torrent":{"xt":"urn:btih:b0125e35cd58c0851b2f2bb2a3643a31a7e30391","amp;dn":"Exposed+2016+Movies+HDRip+XviD+ESubs+AAC+New+Source+%2BSample+%E2%98%BBrDX","amp;tr":["udp%3A%2F%2Ftracker.leechers-paradise.org%3A6969","udp%3A%2F%2Fzer0day.ch%3A1337","udp%3A%2F%2Fopen.demonii.com%3A1337","udp%3A%2F%2Ftracker.coppersurfer.tk%3A6969","udp%3A%2F%2Fexodus.desync.com%3A6969"],"infoHash":"b0125e35cd58c0851b2f2bb2a3643a31a7e30391","infoHashBuffer":{"type":"Buffer","data":[176,18,94,53,205,88,192,133,27,47,43,178,163,100,58,49,167,227,3,145]},"announce":[],"urlList":[]}}